<svg width="18" height="18" viewBox="0 0 18 18" fill="none" xmlns="http://www.w3.org/2000/svg">
<path d="M13.1042 7.11945V4.60414C13.1042 2.0655 11.0387 0 8.49998 0C5.9613 0 3.8958 2.0655 3.8958 4.60418V7.11948C3.0883 7.2838 2.47913 7.99923 2.47913 8.85418V15.2292C2.47916 16.2052 3.27318 17 4.24998 17H12.75C13.7268 17 14.5208 16.2052 14.5208 15.2292V8.85418C14.5208 7.9992 13.9117 7.2838 13.1042 7.11945ZM9.28553 12.5588L9.55896 14.4706C9.57384 14.5726 9.54339 14.6753 9.47609 14.7525C9.40878 14.8297 9.31103 14.875 9.20834 14.875H7.79166C7.68896 14.875 7.59121 14.8304 7.52391 14.7532C7.45661 14.676 7.42616 14.5726 7.44103 14.4713L7.71446 12.5595C7.12228 12.2634 6.72916 11.6521 6.72916 10.9792C6.72916 10.0031 7.52321 9.20836 8.49998 9.20836C9.47675 9.20836 10.2708 10.0031 10.2708 10.9792C10.2708 11.6521 9.87768 12.2634 9.28553 12.5588ZM10.9792 7.08332H6.0208V4.60414C6.0208 3.23707 7.13291 2.125 8.49998 2.125C9.86705 2.125 10.9792 3.23707 10.9792 4.60418V7.08332Z" fill="#577897"/>
</svg>
