<svg width="43" height="26" viewBox="0 0 43 26" fill="none" xmlns="http://www.w3.org/2000/svg">
<path d="M20.103 25.3118H15.2908C15.1658 25.3119 15.043 25.2795 14.9342 25.2179C14.8255 25.1563 14.7345 25.0676 14.6703 24.9604L0.061535 0.66064C0.0221712 0.594832 0.000949842 0.519768 3.115e-05 0.443091C-0.000887542 0.366414 0.0185296 0.290862 0.0563054 0.22413C0.0940812 0.157398 0.148867 0.101868 0.215083 0.0631942C0.281299 0.0245208 0.35658 0.00408471 0.433263 0.00396801H5.24692C5.37177 0.00379187 5.49453 0.0359386 5.60327 0.0972776C5.712 0.158617 5.80301 0.247058 5.86743 0.353999L20.4762 24.6537C20.516 24.7197 20.5375 24.795 20.5386 24.872C20.5396 24.949 20.5201 25.0249 20.4821 25.0919C20.4441 25.1589 20.389 25.2146 20.3224 25.2533C20.2557 25.2919 20.18 25.3121 20.103 25.3118Z" fill="url(#paint0_linear_0_53)"/>
<path d="M20.103 25.3118H15.2908C15.1658 25.3119 15.043 25.2795 14.9342 25.2179C14.8255 25.1563 14.7345 25.0676 14.6703 24.9604L0.061535 0.66064C0.0221712 0.594832 0.000949842 0.519768 3.115e-05 0.443091C-0.000887542 0.366414 0.0185296 0.290862 0.0563054 0.22413C0.0940812 0.157398 0.148867 0.101868 0.215083 0.0631942C0.281299 0.0245208 0.35658 0.00408471 0.433263 0.00396801H5.24692C5.37177 0.00379187 5.49453 0.0359386 5.60327 0.0972776C5.712 0.158617 5.80301 0.247058 5.86743 0.353999L20.4762 24.6537C20.516 24.7197 20.5375 24.795 20.5386 24.872C20.5396 24.949 20.5201 25.0249 20.4821 25.0919C20.4441 25.1589 20.389 25.2146 20.3224 25.2533C20.2557 25.2919 20.18 25.3121 20.103 25.3118Z" fill="#AED8FF"/>
<path d="M42.1319 0.658149L33.2263 15.4665L30.6098 19.8303C30.5712 19.8944 30.5167 19.9475 30.4515 19.9843C30.3864 20.0211 30.3129 20.0404 30.2381 20.0404C30.1632 20.0404 30.0897 20.0211 30.0246 19.9843C29.9594 19.9475 29.9049 19.8944 29.8663 19.8303L27.5521 15.9872C27.4575 15.8297 27.4075 15.6495 27.4075 15.4658C27.4075 15.2821 27.4575 15.1018 27.5521 14.9444L30.2323 10.4822L36.3202 0.357295C36.3846 0.250354 36.4756 0.16191 36.5844 0.100571C36.6931 0.0392323 36.8159 0.00708777 36.9407 0.0072639H41.7602C41.836 0.00797165 41.9103 0.0285358 41.9757 0.0669094C42.0411 0.105283 42.0953 0.160125 42.1329 0.225971C42.1705 0.291818 42.1902 0.36637 42.19 0.442198C42.1899 0.518026 42.1698 0.592482 42.1319 0.658149Z" fill="url(#paint1_linear_0_53)"/>
<path d="M42.1319 0.658149L33.2263 15.4665L30.6098 19.8303C30.5712 19.8944 30.5167 19.9475 30.4515 19.9843C30.3864 20.0211 30.3129 20.0404 30.2381 20.0404C30.1632 20.0404 30.0897 20.0211 30.0246 19.9843C29.9594 19.9475 29.9049 19.8944 29.8663 19.8303L27.5521 15.9872C27.4575 15.8297 27.4075 15.6495 27.4075 15.4658C27.4075 15.2821 27.4575 15.1018 27.5521 14.9444L30.2323 10.4822L36.3202 0.357295C36.3846 0.250354 36.4756 0.16191 36.5844 0.100571C36.6931 0.0392323 36.8159 0.00708777 36.9407 0.0072639H41.7602C41.836 0.00797165 41.9103 0.0285358 41.9757 0.0669094C42.0411 0.105283 42.0953 0.160125 42.1329 0.225971C42.1705 0.291818 42.1902 0.36637 42.19 0.442198C42.1899 0.518026 42.1698 0.592482 42.1319 0.658149Z" fill="#003362"/>
<path d="M38.2989 25.2674H33.4853C33.389 25.2672 33.2937 25.2478 33.205 25.2103C33.1164 25.1728 33.0361 25.1179 32.9689 25.049L31.4661 22.5467C31.3715 22.3892 31.3215 22.209 31.3215 22.0253C31.3215 21.8416 31.3715 21.6613 31.4661 21.5038L33.763 17.6795C33.8016 17.6154 33.8561 17.5624 33.9212 17.5256C33.9863 17.4888 34.0599 17.4695 34.1347 17.4695C34.2095 17.4695 34.2831 17.4888 34.3482 17.5256C34.4133 17.5624 34.4678 17.6154 34.5064 17.6795L37.1317 22.0448L38.6735 24.6093C38.7134 24.6753 38.7349 24.7508 38.7359 24.828C38.7369 24.9051 38.7173 24.9811 38.6791 25.0482C38.641 25.1152 38.5856 25.1709 38.5188 25.2094C38.452 25.2479 38.3761 25.268 38.2989 25.2674Z" fill="url(#paint2_linear_0_53)"/>
<path d="M38.2989 25.2674H33.4853C33.389 25.2672 33.2937 25.2478 33.205 25.2103C33.1164 25.1728 33.0361 25.1179 32.9689 25.049L31.4661 22.5467C31.3715 22.3892 31.3215 22.209 31.3215 22.0253C31.3215 21.8416 31.3715 21.6613 31.4661 21.5038L33.763 17.6795C33.8016 17.6154 33.8561 17.5624 33.9212 17.5256C33.9863 17.4888 34.0599 17.4695 34.1347 17.4695C34.2095 17.4695 34.2831 17.4888 34.3482 17.5256C34.4133 17.5624 34.4678 17.6154 34.5064 17.6795L37.1317 22.0448L38.6735 24.6093C38.7134 24.6753 38.7349 24.7508 38.7359 24.828C38.7369 24.9051 38.7173 24.9811 38.6791 25.0482C38.641 25.1152 38.5856 25.1709 38.5188 25.2094C38.452 25.2479 38.3761 25.268 38.2989 25.2674Z" fill="#003362"/>
<path d="M29.4787 25.3122H24.665C24.54 25.3122 24.4172 25.2798 24.3084 25.2182C24.1997 25.1566 24.1087 25.0679 24.0445 24.9607L18.8606 16.3343L17.8481 14.6579L17.8177 14.6102L16.8327 12.9714C16.7933 12.9056 16.7721 12.8305 16.7712 12.7538C16.7703 12.6772 16.7897 12.6016 16.8275 12.5349C16.8652 12.4681 16.92 12.4126 16.9862 12.3739C17.0525 12.3353 17.1277 12.3148 17.2044 12.3147H20.2969C21.3722 12.314 22.404 11.8896 23.1686 11.1334C23.9332 10.3772 24.369 9.35018 24.3815 8.27489C24.4061 6.00402 22.4824 4.14394 20.2101 4.14394H11.9467C11.8219 4.14411 11.6991 4.11197 11.5904 4.05063C11.4816 3.98929 11.3906 3.90084 11.3262 3.7939L9.44587 0.656638C9.40651 0.59083 9.38529 0.515764 9.38437 0.439087C9.38345 0.36241 9.40287 0.28686 9.44064 0.220128C9.47842 0.153395 9.5332 0.0978652 9.59942 0.0591918C9.66564 0.0205185 9.74092 8.23746e-05 9.8176 -3.43323e-05H20.1884C24.7041 -3.43323e-05 28.4691 3.58562 28.5385 8.09987C28.5621 9.51697 28.2187 10.9161 27.5417 12.1613C26.8648 13.4064 25.8773 14.4554 24.6751 15.2061C24.5786 15.2659 24.5093 15.3613 24.4823 15.4716C24.4553 15.582 24.4726 15.6985 24.5305 15.7962L29.8533 24.6541C29.8932 24.7201 29.9147 24.7956 29.9157 24.8727C29.9167 24.9499 29.8971 25.0259 29.8589 25.0929C29.8207 25.16 29.7654 25.2156 29.6985 25.2542C29.6317 25.2927 29.5558 25.3127 29.4787 25.3122Z" fill="url(#paint3_linear_0_53)"/>
<path d="M29.4787 25.3122H24.665C24.54 25.3122 24.4172 25.2798 24.3084 25.2182C24.1997 25.1566 24.1087 25.0679 24.0445 24.9607L18.8606 16.3343L17.8481 14.6579L17.8177 14.6102L16.8327 12.9714C16.7933 12.9056 16.7721 12.8305 16.7712 12.7538C16.7703 12.6772 16.7897 12.6016 16.8275 12.5349C16.8652 12.4681 16.92 12.4126 16.9862 12.3739C17.0525 12.3353 17.1277 12.3148 17.2044 12.3147H20.2969C21.3722 12.314 22.404 11.8896 23.1686 11.1334C23.9332 10.3772 24.369 9.35018 24.3815 8.27489C24.4061 6.00402 22.4824 4.14394 20.2101 4.14394H11.9467C11.8219 4.14411 11.6991 4.11197 11.5904 4.05063C11.4816 3.98929 11.3906 3.90084 11.3262 3.7939L9.44587 0.656638C9.40651 0.59083 9.38529 0.515764 9.38437 0.439087C9.38345 0.36241 9.40287 0.28686 9.44064 0.220128C9.47842 0.153395 9.5332 0.0978652 9.59942 0.0591918C9.66564 0.0205185 9.74092 8.23746e-05 9.8176 -3.43323e-05H20.1884C24.7041 -3.43323e-05 28.4691 3.58562 28.5385 8.09987C28.5621 9.51697 28.2187 10.9161 27.5417 12.1613C26.8648 13.4064 25.8773 14.4554 24.6751 15.2061C24.5786 15.2659 24.5093 15.3613 24.4823 15.4716C24.4553 15.582 24.4726 15.6985 24.5305 15.7962L29.8533 24.6541C29.8932 24.7201 29.9147 24.7956 29.9157 24.8727C29.9167 24.9499 29.8971 25.0259 29.8589 25.0929C29.8207 25.16 29.7654 25.2156 29.6985 25.2542C29.6317 25.2927 29.5558 25.3127 29.4787 25.3122Z" fill="#AED8FF"/>
<defs>
<linearGradient id="paint0_linear_0_53" x1="6.50874" y1="10.9789" x2="33.0611" y2="15.1377" gradientUnits="userSpaceOnUse">
<stop stop-color="#228BEB"/>
<stop offset="1" stop-color="#003362"/>
</linearGradient>
<linearGradient id="paint1_linear_0_53" x1="4.63244" y1="10.0238" x2="33.7366" y2="13.3634" gradientUnits="userSpaceOnUse">
<stop stop-color="#228BEB"/>
<stop offset="1" stop-color="#003362"/>
</linearGradient>
<linearGradient id="paint2_linear_0_53" x1="5.56179" y1="10.0525" x2="33.0714" y2="16.8404" gradientUnits="userSpaceOnUse">
<stop stop-color="#228BEB"/>
<stop offset="1" stop-color="#003362"/>
</linearGradient>
<linearGradient id="paint3_linear_0_53" x1="5.22914" y1="10.9793" x2="33.2211" y2="15.298" gradientUnits="userSpaceOnUse">
<stop stop-color="#228BEB"/>
<stop offset="1" stop-color="#003362"/>
</linearGradient>
</defs>
</svg>
