<svg width="19" height="19" viewBox="0 0 19 19" fill="none" xmlns="http://www.w3.org/2000/svg">
<path fill-rule="evenodd" clip-rule="evenodd" d="M4.24382 1.58514C3.87786 1.22164 3.29235 1.22453 2.93806 1.57644C1.12897 3.37335 0.760081 6.15477 2.19404 8.20365C4.5911 11.6286 7.03546 14.0896 10.1711 16.2326C12.2765 17.6716 15.0606 17.1027 16.802 15.373C17.1643 15.0131 17.1673 14.4216 16.793 14.0499L14.744 12.0147C14.381 11.6541 13.804 11.642 13.4344 11.9739L12.4384 12.8683C11.7286 13.5056 10.668 13.6411 9.82249 13.1299C7.69611 11.8443 6.46196 10.6078 5.18816 8.52692C4.67153 7.68291 4.80959 6.62425 5.45245 5.91793L6.35283 4.92869C6.68443 4.56438 6.67288 3.99787 6.31175 3.63915L4.24382 1.58514ZM2.01225 0.645519C2.88559 -0.221938 4.2983 -0.211254 5.16964 0.654221L7.23758 2.70824C8.09045 3.55536 8.13514 4.92103 7.32434 5.81181L6.42396 6.80111C6.15326 7.09852 6.11218 7.52128 6.30846 7.84199C7.47291 9.74426 8.55619 10.8303 10.5023 12.0069C10.8289 12.2043 11.2599 12.162 11.5606 11.892L12.5566 10.9976C13.4507 10.1948 14.8189 10.2385 15.6699 11.0838L17.7189 13.119C18.6323 14.0263 18.5682 15.4691 17.6748 16.3565C15.5004 18.5164 12.0558 19.1108 9.42972 17.316C6.1507 15.075 3.59638 12.4973 1.11784 8.95591C-0.720088 6.32986 -0.201161 2.84404 2.01225 0.645519Z" fill="black"/>
</svg>
