<svg width="140" height="16" viewBox="0 0 140 16" fill="none" xmlns="http://www.w3.org/2000/svg">
<path d="M5.20745 14.9629C5.00007 14.9629 4.81213 14.8981 4.64363 14.7685C4.48162 14.6389 4.37793 14.4704 4.33256 14.263L1.06633 1.76188C0.982084 1.42489 1.02097 1.1527 1.18298 0.945323C1.345 0.731462 1.60098 0.624532 1.95094 0.624532H3.91456C4.12842 0.624532 4.31636 0.692579 4.47838 0.828672C4.64039 0.958284 4.74408 1.13002 4.78945 1.34388L7.06414 10.5982L9.05693 1.36332C9.09582 1.14946 9.19951 0.974485 9.368 0.838393C9.5365 0.695819 9.73092 0.624532 9.95126 0.624532H11.8566C12.0834 0.624532 12.281 0.692579 12.4495 0.828672C12.618 0.964765 12.7217 1.14298 12.7606 1.36332L14.7437 10.5982L17.0184 1.34388C17.0637 1.12354 17.1674 0.948563 17.3294 0.818951C17.4979 0.689338 17.6924 0.624532 17.9127 0.624532H19.8666C20.2166 0.624532 20.4725 0.731462 20.6346 0.945323C20.8031 1.1527 20.8387 1.42489 20.7415 1.76188L17.4947 14.263C17.4493 14.4704 17.3424 14.6389 17.1739 14.7685C17.0119 14.8981 16.8272 14.9629 16.6198 14.9629H13.6938C13.4735 14.9629 13.2791 14.8949 13.1106 14.7588C12.9421 14.6162 12.8449 14.438 12.8189 14.2241L10.9039 5.52388L8.98889 14.2241C8.95 14.4444 8.84955 14.6227 8.68754 14.7588C8.52552 14.8949 8.33434 14.9629 8.114 14.9629H5.20745ZM31.3373 15.0212C30.6309 15.1962 29.8954 15.2837 29.1306 15.2837C28.3659 15.2837 27.6271 15.1962 26.9143 15.0212C26.2079 14.8462 25.5274 14.5643 24.8729 14.1755C24.2248 13.7867 23.661 13.3071 23.1814 12.7368C22.7019 12.1665 22.3195 11.4601 22.0344 10.6176C21.7492 9.76868 21.6067 8.82899 21.6067 7.79858C21.6067 6.76816 21.7492 5.83171 22.0344 4.98923C22.3195 4.14027 22.7019 3.43064 23.1814 2.86035C23.661 2.29005 24.2248 1.81049 24.8729 1.42165C25.5274 1.03281 26.2079 0.750904 26.9143 0.575928C27.6271 0.400951 28.3659 0.313463 29.1306 0.313463C29.8954 0.313463 30.6309 0.400951 31.3373 0.575928C32.0437 0.750904 32.7209 1.03281 33.369 1.42165C34.0235 1.81049 34.5906 2.29005 35.0701 2.86035C35.5562 3.43064 35.9418 4.14027 36.2269 4.98923C36.5121 5.83171 36.6546 6.76816 36.6546 7.79858C36.6546 8.82899 36.5121 9.76868 36.2269 10.6176C35.9418 11.4601 35.5562 12.1665 35.0701 12.7368C34.5906 13.3071 34.0235 13.7867 33.369 14.1755C32.7209 14.5643 32.0437 14.8462 31.3373 15.0212ZM26.331 11.1134C27.0439 11.9559 27.9771 12.3771 29.1306 12.3771C30.2842 12.3771 31.2109 11.9559 31.9108 11.1134C32.6172 10.2645 32.9704 9.15951 32.9704 7.79858C32.9704 6.43765 32.6172 5.33594 31.9108 4.49346C31.2109 3.6445 30.2842 3.22002 29.1306 3.22002C27.9771 3.22002 27.0439 3.6445 26.331 4.49346C25.6246 5.33594 25.2714 6.43765 25.2714 7.79858C25.2714 9.15951 25.6246 10.2645 26.331 11.1134ZM38.6474 14.0491V1.54802C38.6474 1.26935 38.7284 1.04577 38.8905 0.877276C39.059 0.70878 39.2825 0.624532 39.5612 0.624532H46.0742C47.7138 0.624532 49.0067 1.04901 49.9529 1.89797C50.899 2.74693 51.3721 3.92965 51.3721 5.44611C51.3721 6.45709 51.1583 7.29633 50.7305 7.96383C50.3093 8.63134 49.6872 9.19191 48.8641 9.64555L50.8278 13.6506C51.0157 14.0394 51.0351 14.357 50.8861 14.6032C50.737 14.843 50.4454 14.9629 50.0112 14.9629H48.1253C47.9504 14.9629 47.7851 14.9175 47.6296 14.8268C47.4805 14.7296 47.3736 14.6032 47.3088 14.4477L45.2965 10.2871H42.3122V14.0491C42.3122 14.3278 42.228 14.5514 42.0595 14.7199C41.8975 14.8819 41.6836 14.9629 41.4179 14.9629H39.5612C39.2825 14.9629 39.059 14.8819 38.8905 14.7199C38.7284 14.5514 38.6474 14.3278 38.6474 14.0491ZM42.3122 3.53109V7.38058H45.6368C46.3172 7.38058 46.8325 7.21532 47.1824 6.88481C47.5324 6.54782 47.7073 6.07473 47.7073 5.46555C47.7073 4.84341 47.5324 4.36709 47.1824 4.03658C46.8389 3.69959 46.3237 3.53109 45.6368 3.53109H42.3122ZM54.2787 14.9629C54 14.9629 53.7764 14.8819 53.6079 14.7199C53.4459 14.5514 53.3649 14.3278 53.3649 14.0491V1.54802C53.3649 1.26935 53.4459 1.04577 53.6079 0.877276C53.7764 0.70878 54 0.624532 54.2787 0.624532H56.1354C56.4011 0.624532 56.6149 0.70878 56.777 0.877276C56.9455 1.04577 57.0297 1.26935 57.0297 1.54802V6.52513L62.1624 0.964765C62.3438 0.737943 62.5771 0.624532 62.8623 0.624532H64.6704C65.2666 0.624532 65.6262 0.763865 65.7494 1.04253C65.8725 1.31472 65.7397 1.67439 65.3508 2.12155L61.0639 6.73899L65.7688 13.5534C66.0475 13.9811 66.1155 14.3246 65.973 14.5838C65.8369 14.8365 65.5161 14.9629 65.0106 14.9629H63.1831C62.8461 14.9629 62.5933 14.83 62.4248 14.5643L58.517 8.97481L57.0297 10.2482V14.0491C57.0297 14.3278 56.9455 14.5514 56.777 14.7199C56.6149 14.8819 56.4011 14.9629 56.1354 14.9629H54.2787ZM72.9234 14.9629C72.6512 14.9629 72.4309 14.8787 72.2624 14.7102C72.0939 14.5417 72.0097 14.3213 72.0097 14.0491V3.53109H68.1213C67.8491 3.53109 67.6288 3.44684 67.4603 3.27834C67.2918 3.10985 67.2075 2.88951 67.2075 2.61732V1.54802C67.2075 1.26935 67.2885 1.04577 67.4505 0.877276C67.619 0.70878 67.8426 0.624532 68.1213 0.624532H79.592C79.8577 0.624532 80.0748 0.71202 80.2433 0.886997C80.4183 1.05549 80.5057 1.27583 80.5057 1.54802V2.61732C80.5057 2.88303 80.4183 3.10337 80.2433 3.27834C80.0748 3.44684 79.8577 3.53109 79.592 3.53109H75.6939V14.0491C75.6939 14.3213 75.6064 14.5417 75.4314 14.7102C75.2629 14.8787 75.0426 14.9629 74.7704 14.9629H72.9234ZM82.2166 14.0491V1.54802C82.2166 1.26935 82.2976 1.04577 82.4596 0.877276C82.6281 0.70878 82.8517 0.624532 83.1304 0.624532H89.6434C91.283 0.624532 92.5759 1.04901 93.5221 1.89797C94.4682 2.74693 94.9413 3.92965 94.9413 5.44611C94.9413 6.45709 94.7275 7.29633 94.2997 7.96383C93.8785 8.63134 93.2564 9.19191 92.4333 9.64555L94.3969 13.6506C94.5849 14.0394 94.6043 14.357 94.4553 14.6032C94.3062 14.843 94.0146 14.9629 93.5804 14.9629H91.6945C91.5196 14.9629 91.3543 14.9175 91.1988 14.8268C91.0497 14.7296 90.9428 14.6032 90.878 14.4477L88.8657 10.2871H85.8814V14.0491C85.8814 14.3278 85.7972 14.5514 85.6287 14.7199C85.4667 14.8819 85.2528 14.9629 84.9871 14.9629H83.1304C82.8517 14.9629 82.6281 14.8819 82.4596 14.7199C82.2976 14.5514 82.2166 14.3278 82.2166 14.0491ZM85.8814 3.53109V7.38058H89.206C89.8864 7.38058 90.4016 7.21532 90.7516 6.88481C91.1016 6.54782 91.2765 6.07473 91.2765 5.46555C91.2765 4.84341 91.1016 4.36709 90.7516 4.03658C90.4081 3.69959 89.8929 3.53109 89.206 3.53109H85.8814ZM96.798 1.54802C96.798 1.26935 96.879 1.04577 97.041 0.877276C97.2095 0.70878 97.4331 0.624532 97.7118 0.624532H99.5685C99.8342 0.624532 100.048 0.70878 100.21 0.877276C100.379 1.04577 100.463 1.26935 100.463 1.54802V8.21658C100.463 10.9903 101.37 12.3771 103.185 12.3771C105.006 12.3771 105.916 10.9903 105.916 8.21658V1.54802C105.916 1.27583 106 1.05549 106.169 0.886997C106.344 0.71202 106.564 0.624532 106.83 0.624532H108.658C108.93 0.624532 109.15 0.71202 109.319 0.886997C109.494 1.05549 109.581 1.27583 109.581 1.54802V8.21658C109.581 12.928 107.449 15.2837 103.185 15.2837C101.001 15.2837 99.3903 14.6842 98.3534 13.4853C97.3165 12.2864 96.798 10.5302 96.798 8.21658V1.54802ZM124.405 11.162C124.697 11.2398 124.895 11.3888 124.998 11.6092C125.102 11.823 125.083 12.0596 124.94 12.3188C124.415 13.2067 123.634 13.9228 122.597 14.4671C121.56 15.0115 120.339 15.2837 118.933 15.2837C117.844 15.2837 116.843 15.1184 115.929 14.7879C115.022 14.4574 114.234 13.9811 113.567 13.3589C112.906 12.7368 112.39 11.9527 112.021 11.0065C111.652 10.0538 111.467 8.98453 111.467 7.79858C111.467 6.61262 111.652 5.54656 112.021 4.60039C112.39 3.64774 112.906 2.86035 113.567 2.23821C114.234 1.61607 115.022 1.13974 115.929 0.80923C116.843 0.478718 117.844 0.313463 118.933 0.313463C120.339 0.313463 121.56 0.585648 122.597 1.13002C123.634 1.67439 124.415 2.3905 124.94 3.27834C125.083 3.53757 125.102 3.77735 124.998 3.99769C124.895 4.21155 124.697 4.35737 124.405 4.43514L122.695 4.87258C122.28 4.96979 121.927 4.83045 121.635 4.45458C120.955 3.63154 120.054 3.22002 118.933 3.22002C117.798 3.22002 116.881 3.63154 116.182 4.45458C115.482 5.27762 115.132 6.39228 115.132 7.79858C115.132 9.20487 115.482 10.3195 116.182 11.1426C116.881 11.9656 117.798 12.3771 118.933 12.3771C120.054 12.3771 120.955 11.9656 121.635 11.1426C121.927 10.7667 122.28 10.6274 122.695 10.7246L124.405 11.162ZM127.788 14.9629C127.51 14.9629 127.286 14.8819 127.118 14.7199C126.956 14.5514 126.875 14.3278 126.875 14.0491V1.54802C126.875 1.26935 126.956 1.04577 127.118 0.877276C127.286 0.70878 127.51 0.624532 127.788 0.624532H129.645C129.911 0.624532 130.125 0.70878 130.287 0.877276C130.455 1.04577 130.539 1.26935 130.539 1.54802V6.52513L135.672 0.964765C135.853 0.737943 136.087 0.624532 136.372 0.624532H138.18C138.776 0.624532 139.136 0.763865 139.259 1.04253C139.382 1.31472 139.249 1.67439 138.86 2.12155L134.574 6.73899L139.278 13.5534C139.557 13.9811 139.625 14.3246 139.483 14.5838C139.347 14.8365 139.026 14.9629 138.52 14.9629H136.693C136.356 14.9629 136.103 14.83 135.934 14.5643L132.027 8.97481L130.539 10.2482V14.0491C130.539 14.3278 130.455 14.5514 130.287 14.7199C130.125 14.8819 129.911 14.9629 129.645 14.9629H127.788Z" fill="url(#paint0_linear_0_52)"/>
<path d="M5.20745 14.9629C5.00007 14.9629 4.81213 14.8981 4.64363 14.7685C4.48162 14.6389 4.37793 14.4704 4.33256 14.263L1.06633 1.76188C0.982084 1.42489 1.02097 1.1527 1.18298 0.945323C1.345 0.731462 1.60098 0.624532 1.95094 0.624532H3.91456C4.12842 0.624532 4.31636 0.692579 4.47838 0.828672C4.64039 0.958284 4.74408 1.13002 4.78945 1.34388L7.06414 10.5982L9.05693 1.36332C9.09582 1.14946 9.19951 0.974485 9.368 0.838393C9.5365 0.695819 9.73092 0.624532 9.95126 0.624532H11.8566C12.0834 0.624532 12.281 0.692579 12.4495 0.828672C12.618 0.964765 12.7217 1.14298 12.7606 1.36332L14.7437 10.5982L17.0184 1.34388C17.0637 1.12354 17.1674 0.948563 17.3294 0.818951C17.4979 0.689338 17.6924 0.624532 17.9127 0.624532H19.8666C20.2166 0.624532 20.4725 0.731462 20.6346 0.945323C20.8031 1.1527 20.8387 1.42489 20.7415 1.76188L17.4947 14.263C17.4493 14.4704 17.3424 14.6389 17.1739 14.7685C17.0119 14.8981 16.8272 14.9629 16.6198 14.9629H13.6938C13.4735 14.9629 13.2791 14.8949 13.1106 14.7588C12.9421 14.6162 12.8449 14.438 12.8189 14.2241L10.9039 5.52388L8.98889 14.2241C8.95 14.4444 8.84955 14.6227 8.68754 14.7588C8.52552 14.8949 8.33434 14.9629 8.114 14.9629H5.20745ZM31.3373 15.0212C30.6309 15.1962 29.8954 15.2837 29.1306 15.2837C28.3659 15.2837 27.6271 15.1962 26.9143 15.0212C26.2079 14.8462 25.5274 14.5643 24.8729 14.1755C24.2248 13.7867 23.661 13.3071 23.1814 12.7368C22.7019 12.1665 22.3195 11.4601 22.0344 10.6176C21.7492 9.76868 21.6067 8.82899 21.6067 7.79858C21.6067 6.76816 21.7492 5.83171 22.0344 4.98923C22.3195 4.14027 22.7019 3.43064 23.1814 2.86035C23.661 2.29005 24.2248 1.81049 24.8729 1.42165C25.5274 1.03281 26.2079 0.750904 26.9143 0.575928C27.6271 0.400951 28.3659 0.313463 29.1306 0.313463C29.8954 0.313463 30.6309 0.400951 31.3373 0.575928C32.0437 0.750904 32.7209 1.03281 33.369 1.42165C34.0235 1.81049 34.5906 2.29005 35.0701 2.86035C35.5562 3.43064 35.9418 4.14027 36.2269 4.98923C36.5121 5.83171 36.6546 6.76816 36.6546 7.79858C36.6546 8.82899 36.5121 9.76868 36.2269 10.6176C35.9418 11.4601 35.5562 12.1665 35.0701 12.7368C34.5906 13.3071 34.0235 13.7867 33.369 14.1755C32.7209 14.5643 32.0437 14.8462 31.3373 15.0212ZM26.331 11.1134C27.0439 11.9559 27.9771 12.3771 29.1306 12.3771C30.2842 12.3771 31.2109 11.9559 31.9108 11.1134C32.6172 10.2645 32.9704 9.15951 32.9704 7.79858C32.9704 6.43765 32.6172 5.33594 31.9108 4.49346C31.2109 3.6445 30.2842 3.22002 29.1306 3.22002C27.9771 3.22002 27.0439 3.6445 26.331 4.49346C25.6246 5.33594 25.2714 6.43765 25.2714 7.79858C25.2714 9.15951 25.6246 10.2645 26.331 11.1134ZM38.6474 14.0491V1.54802C38.6474 1.26935 38.7284 1.04577 38.8905 0.877276C39.059 0.70878 39.2825 0.624532 39.5612 0.624532H46.0742C47.7138 0.624532 49.0067 1.04901 49.9529 1.89797C50.899 2.74693 51.3721 3.92965 51.3721 5.44611C51.3721 6.45709 51.1583 7.29633 50.7305 7.96383C50.3093 8.63134 49.6872 9.19191 48.8641 9.64555L50.8278 13.6506C51.0157 14.0394 51.0351 14.357 50.8861 14.6032C50.737 14.843 50.4454 14.9629 50.0112 14.9629H48.1253C47.9504 14.9629 47.7851 14.9175 47.6296 14.8268C47.4805 14.7296 47.3736 14.6032 47.3088 14.4477L45.2965 10.2871H42.3122V14.0491C42.3122 14.3278 42.228 14.5514 42.0595 14.7199C41.8975 14.8819 41.6836 14.9629 41.4179 14.9629H39.5612C39.2825 14.9629 39.059 14.8819 38.8905 14.7199C38.7284 14.5514 38.6474 14.3278 38.6474 14.0491ZM42.3122 3.53109V7.38058H45.6368C46.3172 7.38058 46.8325 7.21532 47.1824 6.88481C47.5324 6.54782 47.7073 6.07473 47.7073 5.46555C47.7073 4.84341 47.5324 4.36709 47.1824 4.03658C46.8389 3.69959 46.3237 3.53109 45.6368 3.53109H42.3122ZM54.2787 14.9629C54 14.9629 53.7764 14.8819 53.6079 14.7199C53.4459 14.5514 53.3649 14.3278 53.3649 14.0491V1.54802C53.3649 1.26935 53.4459 1.04577 53.6079 0.877276C53.7764 0.70878 54 0.624532 54.2787 0.624532H56.1354C56.4011 0.624532 56.6149 0.70878 56.777 0.877276C56.9455 1.04577 57.0297 1.26935 57.0297 1.54802V6.52513L62.1624 0.964765C62.3438 0.737943 62.5771 0.624532 62.8623 0.624532H64.6704C65.2666 0.624532 65.6262 0.763865 65.7494 1.04253C65.8725 1.31472 65.7397 1.67439 65.3508 2.12155L61.0639 6.73899L65.7688 13.5534C66.0475 13.9811 66.1155 14.3246 65.973 14.5838C65.8369 14.8365 65.5161 14.9629 65.0106 14.9629H63.1831C62.8461 14.9629 62.5933 14.83 62.4248 14.5643L58.517 8.97481L57.0297 10.2482V14.0491C57.0297 14.3278 56.9455 14.5514 56.777 14.7199C56.6149 14.8819 56.4011 14.9629 56.1354 14.9629H54.2787ZM72.9234 14.9629C72.6512 14.9629 72.4309 14.8787 72.2624 14.7102C72.0939 14.5417 72.0097 14.3213 72.0097 14.0491V3.53109H68.1213C67.8491 3.53109 67.6288 3.44684 67.4603 3.27834C67.2918 3.10985 67.2075 2.88951 67.2075 2.61732V1.54802C67.2075 1.26935 67.2885 1.04577 67.4505 0.877276C67.619 0.70878 67.8426 0.624532 68.1213 0.624532H79.592C79.8577 0.624532 80.0748 0.71202 80.2433 0.886997C80.4183 1.05549 80.5057 1.27583 80.5057 1.54802V2.61732C80.5057 2.88303 80.4183 3.10337 80.2433 3.27834C80.0748 3.44684 79.8577 3.53109 79.592 3.53109H75.6939V14.0491C75.6939 14.3213 75.6064 14.5417 75.4314 14.7102C75.2629 14.8787 75.0426 14.9629 74.7704 14.9629H72.9234ZM82.2166 14.0491V1.54802C82.2166 1.26935 82.2976 1.04577 82.4596 0.877276C82.6281 0.70878 82.8517 0.624532 83.1304 0.624532H89.6434C91.283 0.624532 92.5759 1.04901 93.5221 1.89797C94.4682 2.74693 94.9413 3.92965 94.9413 5.44611C94.9413 6.45709 94.7275 7.29633 94.2997 7.96383C93.8785 8.63134 93.2564 9.19191 92.4333 9.64555L94.3969 13.6506C94.5849 14.0394 94.6043 14.357 94.4553 14.6032C94.3062 14.843 94.0146 14.9629 93.5804 14.9629H91.6945C91.5196 14.9629 91.3543 14.9175 91.1988 14.8268C91.0497 14.7296 90.9428 14.6032 90.878 14.4477L88.8657 10.2871H85.8814V14.0491C85.8814 14.3278 85.7972 14.5514 85.6287 14.7199C85.4667 14.8819 85.2528 14.9629 84.9871 14.9629H83.1304C82.8517 14.9629 82.6281 14.8819 82.4596 14.7199C82.2976 14.5514 82.2166 14.3278 82.2166 14.0491ZM85.8814 3.53109V7.38058H89.206C89.8864 7.38058 90.4016 7.21532 90.7516 6.88481C91.1016 6.54782 91.2765 6.07473 91.2765 5.46555C91.2765 4.84341 91.1016 4.36709 90.7516 4.03658C90.4081 3.69959 89.8929 3.53109 89.206 3.53109H85.8814ZM96.798 1.54802C96.798 1.26935 96.879 1.04577 97.041 0.877276C97.2095 0.70878 97.4331 0.624532 97.7118 0.624532H99.5685C99.8342 0.624532 100.048 0.70878 100.21 0.877276C100.379 1.04577 100.463 1.26935 100.463 1.54802V8.21658C100.463 10.9903 101.37 12.3771 103.185 12.3771C105.006 12.3771 105.916 10.9903 105.916 8.21658V1.54802C105.916 1.27583 106 1.05549 106.169 0.886997C106.344 0.71202 106.564 0.624532 106.83 0.624532H108.658C108.93 0.624532 109.15 0.71202 109.319 0.886997C109.494 1.05549 109.581 1.27583 109.581 1.54802V8.21658C109.581 12.928 107.449 15.2837 103.185 15.2837C101.001 15.2837 99.3903 14.6842 98.3534 13.4853C97.3165 12.2864 96.798 10.5302 96.798 8.21658V1.54802ZM124.405 11.162C124.697 11.2398 124.895 11.3888 124.998 11.6092C125.102 11.823 125.083 12.0596 124.94 12.3188C124.415 13.2067 123.634 13.9228 122.597 14.4671C121.56 15.0115 120.339 15.2837 118.933 15.2837C117.844 15.2837 116.843 15.1184 115.929 14.7879C115.022 14.4574 114.234 13.9811 113.567 13.3589C112.906 12.7368 112.39 11.9527 112.021 11.0065C111.652 10.0538 111.467 8.98453 111.467 7.79858C111.467 6.61262 111.652 5.54656 112.021 4.60039C112.39 3.64774 112.906 2.86035 113.567 2.23821C114.234 1.61607 115.022 1.13974 115.929 0.80923C116.843 0.478718 117.844 0.313463 118.933 0.313463C120.339 0.313463 121.56 0.585648 122.597 1.13002C123.634 1.67439 124.415 2.3905 124.94 3.27834C125.083 3.53757 125.102 3.77735 124.998 3.99769C124.895 4.21155 124.697 4.35737 124.405 4.43514L122.695 4.87258C122.28 4.96979 121.927 4.83045 121.635 4.45458C120.955 3.63154 120.054 3.22002 118.933 3.22002C117.798 3.22002 116.881 3.63154 116.182 4.45458C115.482 5.27762 115.132 6.39228 115.132 7.79858C115.132 9.20487 115.482 10.3195 116.182 11.1426C116.881 11.9656 117.798 12.3771 118.933 12.3771C120.054 12.3771 120.955 11.9656 121.635 11.1426C121.927 10.7667 122.28 10.6274 122.695 10.7246L124.405 11.162ZM127.788 14.9629C127.51 14.9629 127.286 14.8819 127.118 14.7199C126.956 14.5514 126.875 14.3278 126.875 14.0491V1.54802C126.875 1.26935 126.956 1.04577 127.118 0.877276C127.286 0.70878 127.51 0.624532 127.788 0.624532H129.645C129.911 0.624532 130.125 0.70878 130.287 0.877276C130.455 1.04577 130.539 1.26935 130.539 1.54802V6.52513L135.672 0.964765C135.853 0.737943 136.087 0.624532 136.372 0.624532H138.18C138.776 0.624532 139.136 0.763865 139.259 1.04253C139.382 1.31472 139.249 1.67439 138.86 2.12155L134.574 6.73899L139.278 13.5534C139.557 13.9811 139.625 14.3246 139.483 14.5838C139.347 14.8365 139.026 14.9629 138.52 14.9629H136.693C136.356 14.9629 136.103 14.83 135.934 14.5643L132.027 8.97481L130.539 10.2482V14.0491C130.539 14.3278 130.455 14.5514 130.287 14.7199C130.125 14.8819 129.911 14.9629 129.645 14.9629H127.788Z" fill="#003362"/>
<defs>
<linearGradient id="paint0_linear_0_52" x1="9.90671" y1="5.25915" x2="129.868" y2="9.56458" gradientUnits="userSpaceOnUse">
<stop stop-color="#228BEB"/>
<stop offset="1" stop-color="#003362"/>
</linearGradient>
</defs>
</svg>
